# xmcd
#
# Track frame offsets:
# 150
# 12092
# 24892
# 35991
# 47471
# 59950
# 71736
# 83432
# 94136
# 107018
# 118454
# 129895
# 140958
# 152639
# 163422
# 175413
# 187169
# 197715
# 210529
# 224597
# 235948
# 247338
# 254437
# 266171
#
# Disc length: 3617 seconds
#
#
# Revision: 0
# Processed by: cddbd v1.4PL0 Copyright (c) Steve Scherf et al.
# Submitted via: FreeRIP 2.00 
#
DISCID=790e1f18
DTITLE=Jim Reeves - Mexican Joe
DYEAR=1900
DGENRE=Country
TTITLE0=Mexican Joe (1953)
TTITLE1=Bimbo (1953)
TTITLE2=Then I'll Stop Loving You (1954)
TTITLE3=Penny Candy (1954)
TTITLE4=Drinking Tequila (1955)
TTITLE5=I'll Follow You (1954)
TTITLE6=Give Me One More Kiss (1955)
TTITLE7=Hillbilly Waltz (1956)
TTITLE8=Butterfly Love (1953)
TTITLE9=It's Hard To Love Just One (1953)
TTITLE10=Gypsy Heart (1953)
TTITLE11=Red Eyed And Rowdy (1955)
TTITLE12=Are You The One (with Alvadean Coker) (1955)
TTITLE13=Let Me Remember (1956)
TTITLE14=How Many (1955)
TTITLE15=Padre Of Old San Antone (1954)
TTITLE16=My Rambling Heart (1954)
TTITLE17=Echo Bonita (1954)
TTITLE18=Each Beat Of My Heart (1982)
TTITLE19=Let Me Love You Just A Little (1994)
TTITLE20=Wagon Load Of Love (1953)
TTITLE21=You're The Sweetest Thing (1994)
TTITLE22=Whispering Willow (1982)
TTITLE23=I'll Always Love You (1994)
EXTD=
EXTT0=
EXTT1=
EXTT2=
EXTT3=
EXTT4=
EXTT5=
EXTT6=
EXTT7=
EXTT8=
EXTT9=
EXTT10=
EXTT11=
EXTT12=
EXTT13=
EXTT14=
EXTT15=
EXTT16=
EXTT17=
EXTT18=
EXTT19=
EXTT20=
EXTT21=
EXTT22=
EXTT23=
PLAYORDER=
